<svg width="20" height="20" viewBox="0 0 20 20" fill="none" xmlns="http://www.w3.org/2000/svg">
<path d="M15.3 18.9583H4.65832C3.39166 18.9583 2.23332 18.3167 1.56666 17.2333C0.89999 16.15 0.841657 14.8333 1.40832 13.6917L2.84166 10.8167C3.30832 9.88333 4.05832 9.3 4.89999 9.20833C5.74166 9.11666 6.59999 9.53333 7.24999 10.3417L7.43332 10.575C7.79999 11.025 8.22499 11.2667 8.64166 11.225C9.05832 11.1917 9.44166 10.8917 9.72499 10.3833L11.3 7.54166C11.95 6.36666 12.8167 5.75833 13.7583 5.79999C14.6917 5.84999 15.4917 6.54999 16.025 7.78333L18.6333 13.875C19.1167 15 19 16.2833 18.325 17.3083C17.6583 18.35 16.525 18.9583 15.3 18.9583ZM5.13332 10.4583C5.09999 10.4583 5.06666 10.4583 5.03332 10.4667C4.61666 10.5083 4.23332 10.8417 3.95832 11.3833L2.52499 14.2583C2.14999 15 2.19166 15.875 2.62499 16.5833C3.05832 17.2917 3.82499 17.7167 4.65832 17.7167H15.2917C16.1083 17.7167 16.8333 17.325 17.2833 16.6417C17.7333 15.9583 17.8083 15.1417 17.4833 14.3917L14.875 8.29999C14.5583 7.54999 14.1167 7.09166 13.6917 7.07499C13.3 7.04999 12.7917 7.46666 12.3917 8.175L10.8167 11.0167C10.3333 11.8833 9.57499 12.425 8.74999 12.5C7.92499 12.5667 7.08332 12.1667 6.45832 11.3833L6.27499 11.15C5.92499 10.6917 5.52499 10.4583 5.13332 10.4583Z" fill="#00508F"/>
<path d="M5.80832 7.29167C4.09165 7.29167 2.68332 5.89167 2.68332 4.16667C2.68332 2.44167 4.08332 1.04167 5.80832 1.04167C7.53332 1.04167 8.93332 2.44167 8.93332 4.16667C8.93332 5.89167 7.53332 7.29167 5.80832 7.29167ZM5.80832 2.29167C4.77499 2.29167 3.93332 3.13334 3.93332 4.16667C3.93332 5.20001 4.77499 6.04167 5.80832 6.04167C6.84165 6.04167 7.68332 5.20001 7.68332 4.16667C7.68332 3.13334 6.84165 2.29167 5.80832 2.29167Z" fill="#00508F"/>
</svg>
